# xmcd
#
# Track frame offsets: 
#        150
#        11801
#        21667
#        33424
#        42350
#        55012
#        67215
#        77833
#        86302
#        98023
#
# Disc length: 1469 seconds
#
# Revision: 2
# Processed by: cddbd v1.5.2PL0 Copyright (c) Steve Scherf et al.
# Submitted via: ExactAudioCopy v1.3
#
DISCID=7d05bb0a
DTITLE=Porter Wagoner - Down Home Country
DYEAR=1992
DGENRE=Country
TTITLE0=Angel Band
TTITLE1=Baby Linda
TTITLE2=Crumbs From Another Man's Table
TTITLE3=Can You Tell Me
TTITLE4=When The One You Love Says I Love You
TTITLE5=Devil's Alley
TTITLE6=I Can't Be Your Man
TTITLE7=I See You
TTITLE8=I Know I'm Gonna Be Loved Tonight
TTITLE9=He Really Must Have Loved You
EXTD=
EXTT0=
EXTT1=
EXTT2=
EXTT3=
EXTT4=
EXTT5=
EXTT6=
EXTT7=
EXTT8=
EXTT9=
PLAYORDER=
